<?xml version="1.0" encoding="UTF-8"?>
<svg id="Layer_1" xmlns="http://www.w3.org/2000/svg" version="1.1" viewBox="0 0 800 240">
  <!-- Generator: Adobe Illustrator 29.8.2, SVG Export Plug-In . SVG Version: 2.1.1 Build 3)  -->
  <defs>
    <style>
      .st0 {
        fill: #d80e0e;
      }

      .st1 {
        fill: #0f1f53;
      }
    </style>
  </defs>
  <path class="st1" d="M103.5,170.1l-3.5,16.5c-1.5,7.3-3.8,14-6.8,20-3,6-6.8,11.1-11.5,15.4-4.7,4.3-10.3,7.6-17,10-6.6,2.4-14.4,3.5-23.3,3.5s-.1,0-.1.1c-7.2,0-13.4-.8-18.4-2.3s-9.1-3.7-12.3-6.6c-3.2-2.8-5.5-6.3-6.9-10.4-1.4-4.1-2.1-8.7-2.1-13.7s.2-5.3.5-8c.3-2.7.8-5.6,1.5-8.6l19.5-92.3c1.5-7.3,3.8-14,6.7-20.2s6.8-11.3,11.5-15.6c4.7-4.3,10.4-7.7,17-10.1,6.6-2.4,14.4-3.7,23.4-3.7h.1c7.2-.1,13.3.7,18.3,2.2,5,1.5,9.2,3.7,12.3,6.6,3.2,2.9,5.5,6.3,7,10.4,1.5,4.1,2.2,8.6,2.2,13.7s-.2,5.2-.5,7.9c-.3,2.8-.8,5.6-1.5,8.6l-3.4,16h-40.3l3.4-15.9c.2-1.1.4-2.2.4-3.5s-.4-3.2-1.2-4.6c-.8-1.4-2.4-2.2-4.9-2.3-1.7,0-3.2.4-4.4,1.1-1.2.7-2.2,1.6-3,2.7-.8,1.1-1.4,2.2-1.8,3.4-.4,1.2-.8,2.3-1,3.2l-19.7,92.3c-.2.6-.3,1.2-.4,1.8,0,.6-.1,1.2-.1,1.9,0,1.7.4,3.3,1.3,4.7.9,1.4,2.5,2.1,5.1,2.1s3-.3,4.2-1c1.2-.7,2.2-1.5,3-2.5.8-1,1.4-2,1.9-3.2.4-1.1.8-2.2,1-3.2l3.4-16.4h40.3Z"/>
  <path class="st1" d="M128.4,132c1.5-7.4,3.7-14.1,6.6-20.2,2.8-6.1,6.6-11.2,11.2-15.5,4.6-4.3,10.2-7.6,16.7-9.9,6.6-2.3,14.4-3.5,23.4-3.5s13.1.7,18,2.2c4.9,1.5,8.9,3.6,12,6.4,3.1,2.8,5.3,6.1,6.7,10.1,1.4,4,2.1,8.4,2.1,13.4s-.7,10.8-2.1,17.1l-11.6,54.5c-1.6,7.4-3.8,14.2-6.6,20.2-2.8,6.1-6.4,11.2-10.9,15.5-4.5,4.3-10,7.6-16.4,9.9-6.5,2.3-14.2,3.5-23.3,3.5s-13.3-.8-18.3-2.3-9.1-3.6-12.2-6.4c-3.1-2.8-5.4-6.1-6.8-10.1-1.4-4-2.1-8.5-2.1-13.6s.2-5.3.5-8.1c.3-2.8.8-5.7,1.5-8.7l11.5-54.5ZM178.1,121c-1.7,0-3.2.3-4.3,1-1.2.7-2.2,1.5-2.9,2.6-.8,1-1.4,2.1-1.8,3.3-.4,1.2-.7,2.3-1,3.2l-12,56.1c-.2.6-.3,1.1-.4,1.7,0,.6-.1,1.2-.1,1.8,0,1.6.4,3.1,1.3,4.4.9,1.3,2.5,2,5.1,2s3.1-.3,4.3-1c1.1-.7,2.1-1.5,2.9-2.5.8-1,1.4-2,1.8-3.2.4-1.1.7-2.2,1-3.2l11.8-56.2c.2-.6.3-1.2.4-1.8,0-.6.1-1.2.1-1.9,0-1.6-.4-3.1-1.2-4.4-.8-1.3-2.4-2-4.9-2Z"/>
  <path class="st1" d="M220.2,232.8l40.8-191.7h39.2l-40.8,191.7h-39.2Z"/>
  <path class="st1" d="M279.8,232.8l31.3-146.8h39.3l-31.3,146.8h-39.3ZM312.9,63c0-7.7,2.1-13.5,6.4-17.5,4.3-4,11.3-6,20.9-6s11.5,1.1,14.7,3.4c3.2,2.3,4.8,5.9,4.8,10.7,0,7.6-2.1,13.4-6.3,17.5-4.2,4.1-11.2,6.1-21.1,6.1s-19.4-4.7-19.4-14.2Z"/>
  <path class="st1" d="M341.5,232.8l40.8-191.7h39.2l-11.8,55.7c2.6-4.3,5.6-7.7,9-10.2,3.4-2.5,7.5-3.7,12.1-3.7s9.8.7,13.5,2c3.7,1.3,6.7,3.2,9,5.7,2.3,2.5,4,5.5,5.1,9.1,1.1,3.6,1.6,7.6,1.6,12.1s-.2,6.2-.7,9.6c-.4,3.4-1.1,7-1.9,10.7l-11.6,54.4c-1.6,7.4-3.6,14.2-6,20.2-2.4,6.1-5.5,11.2-9.2,15.5-3.7,4.3-8.1,7.6-13.3,9.9-5.2,2.3-11.3,3.5-18.4,3.5s-8.4-1.3-10.8-3.9c-2.4-2.6-4-6.2-4.8-10.7l-2.6,11.8h-39.2ZM412.5,121c-1.7,0-3.2.5-4.4,1.4-1.2.9-2.2,2.1-3.1,3.4-.8,1.3-1.5,2.7-2,4.1-.5,1.4-.9,2.6-1.1,3.5l-10.9,51.3c-.2.7-.3,1.4-.4,2.2,0,.8-.1,1.7-.1,2.6s0,1.8.2,2.7c.2.9.4,1.7.9,2.4.4.7,1,1.3,1.8,1.8.8.4,1.7.7,2.9.7,1.7,0,3.1-.3,4.3-1,1.1-.7,2.1-1.5,2.9-2.5.8-1,1.4-2,1.8-3.2.4-1.1.7-2.2,1-3.2l11.8-56.2c.2-.6.3-1.1.4-1.7,0-.6.1-1.2.1-1.8,0-1.6-.4-3.1-1.3-4.5-.9-1.3-2.5-2-4.9-2Z"/>
  <path class="st1" d="M545.6,128c-.2,0-.6-.4-1.3-1-.7-.6-1.8-1.2-3.2-1.9-1.4-.7-3.2-1.3-5.2-1.9-2-.6-4.4-.9-7.2-.9h-.2c-1.7,0-3.3.5-4.8,1.4-1.5.9-2.8,2.1-4,3.4-1.1,1.3-2.1,2.6-2.8,4-.7,1.4-1.2,2.6-1.3,3.5l-.2.5-20.6,97.6h-39.2l31.1-146.8h39.2l-2.9,13.9c2.8-5.1,6.1-9.2,9.8-12.3,3.7-3.1,8-4.6,13-4.6v.4c0,0,0-.1,0-.1s0,0,0-.1h.1c.9-.1,2.3.1,4.1.5,1.8.4,3.4,1.3,4.6,2.6l-8.9,41.8Z"/>
  <path class="st1" d="M534.8,232.8l31.3-146.8h39.3l-31.3,146.8h-39.3ZM567.9,63c0-7.7,2.1-13.5,6.4-17.5,4.3-4,11.3-6,20.9-6s11.5,1.1,14.7,3.4c3.2,2.3,4.8,5.9,4.8,10.7,0,7.6-2.1,13.4-6.3,17.5-4.2,4.1-11.2,6.1-21.1,6.1s-19.4-4.7-19.4-14.2Z"/>
  <g>
    <polygon class="st1" points="745.7 4.4 665.1 169.9 674.5 41.1 621.6 41.1 617.8 232.8 671.1 232.8 784 4.4 745.7 4.4"/>
    <polygon class="st1" points="798.4 4.4 791.3 4.4 678.4 232.8 685.8 232.8 798.4 4.4"/>
    <polygon class="st0" points="786.3 4.4 781.5 4.4 669.9 232.8 674.9 232.8 786.3 4.4"/>
  </g>
</svg>